<svg xmlns="http://www.w3.org/2000/svg" width="387" height="368" viewBox="0 0 387 368" version="1.1"><path d="M 129.200 26.200 C 128.540 26.860, 128 27.990, 128 28.710 C 128 30.520, 153.953 86.085, 155.809 88.250 C 158.322 91.181, 163 89.845, 163 86.197 C 163 84.338, 137.108 29, 135.185 26.750 C 133.449 24.718, 130.915 24.485, 129.200 26.200 M 225.200 26.200 C 224.540 26.860, 224 27.990, 224 28.710 C 224 30.520, 249.953 86.085, 251.809 88.250 C 254.322 91.181, 259 89.845, 259 86.197 C 259 84.338, 233.108 29, 231.185 26.750 C 229.449 24.718, 226.915 24.485, 225.200 26.200 M 102.584 36.301 C 95.633 47.168, 93.204 57.098, 95.033 67.181 C 96.120 73.179, 100.235 82.641, 104.195 88.250 C 106.366 91.326, 110.020 91.886, 112.039 89.453 C 113.114 88.158, 112.607 86.516, 108.911 79.327 C 104.585 70.912, 104.500 70.560, 104.500 61 C 104.500 51.440, 104.585 51.088, 108.911 42.673 C 112.607 35.484, 113.114 33.842, 112.039 32.547 C 109.419 29.390, 106.183 30.675, 102.584 36.301 M 198.584 36.301 C 191.633 47.168, 189.204 57.098, 191.033 67.181 C 192.120 73.179, 196.235 82.641, 200.195 88.250 C 202.366 91.326, 206.020 91.886, 208.039 89.453 C 209.114 88.158, 208.607 86.516, 204.911 79.327 C 200.585 70.912, 200.500 70.560, 200.500 61 C 200.500 51.440, 200.585 51.088, 204.911 42.673 C 208.607 35.484, 209.114 33.842, 208.039 32.547 C 205.419 29.390, 202.183 30.675, 198.584 36.301 M 107.835 146.750 C 105.884 149.065, 80 204.314, 80 206.163 C 80 209.839, 84.676 211.199, 87.170 208.250 C 89.054 206.023, 115 150.544, 115 148.744 C 115 145.152, 110.287 143.841, 107.835 146.750 M 273.200 146.200 C 272.540 146.860, 272 147.990, 272 148.710 C 272 150.520, 297.953 206.085, 299.809 208.250 C 302.322 211.181, 307 209.845, 307 206.197 C 307 204.338, 281.108 149, 279.185 146.750 C 277.449 144.718, 274.915 144.485, 273.200 146.200 M 140.333 193.615 C 138.795 195.961, 138.771 196.502, 140.098 198.865 C 141.303 201.013, 142.302 201.500, 145.500 201.500 C 148.698 201.500, 149.697 201.013, 150.902 198.865 C 152.229 196.502, 152.205 195.961, 150.667 193.615 C 149.367 191.630, 148.121 191, 145.500 191 C 142.879 191, 141.633 191.630, 140.333 193.615 M 188.333 193.615 C 186.795 195.961, 186.771 196.502, 188.098 198.865 C 189.303 201.013, 190.302 201.500, 193.500 201.500 C 196.698 201.500, 197.697 201.013, 198.902 198.865 C 200.229 196.502, 200.205 195.961, 198.667 193.615 C 197.367 191.630, 196.121 191, 193.500 191 C 190.879 191, 189.633 191.630, 188.333 193.615 M 81.200 266.200 C 80.540 266.860, 80 267.990, 80 268.710 C 80 270.520, 105.953 326.085, 107.809 328.250 C 110.322 331.181, 115 329.845, 115 326.197 C 115 324.338, 89.108 269, 87.185 266.750 C 85.449 264.718, 82.915 264.485, 81.200 266.200 M 124.250 275.662 C 123.563 275.940, 123 277.246, 123 278.564 C 123 280.305, 123.704 281.139, 125.569 281.607 C 127.390 282.064, 130.011 285.052, 134.569 291.868 C 140.752 301.114, 141 301.724, 141 307.688 L 141 313.890 136.352 314.195 C 131.035 314.544, 128.729 316.764, 130.930 319.416 C 132.870 321.753, 158.130 321.753, 160.070 319.416 C 162.271 316.764, 159.965 314.544, 154.648 314.195 L 150 313.890 150 307.438 C 150 301.194, 150.201 300.682, 156.250 291.574 C 161.056 284.337, 163.135 282.034, 165.250 281.606 C 167.370 281.177, 168 280.476, 168 278.544 C 168 275.413, 165.870 274.794, 156.479 275.199 C 149.937 275.481, 149.478 275.653, 149.155 277.944 C 148.950 279.400, 149.488 280.884, 150.486 281.613 C 152.012 282.729, 151.854 283.296, 148.712 287.961 L 145.262 293.084 142.131 288.204 C 138.903 283.175, 138.260 281, 140 281 C 141.642 281, 141.131 276.264, 139.418 275.607 C 137.553 274.891, 126.057 274.933, 124.250 275.662 M 332.349 278.250 C 332.663 280.038, 333.226 284.425, 333.600 288 C 334.431 295.943, 335.491 299, 337.416 299 C 339.533 299, 339.756 298.341, 340.979 288.448 C 341.587 283.527, 342.300 278.488, 342.562 277.250 C 343.011 275.127, 342.721 275, 337.408 275 L 331.777 275 332.349 278.250 M 368 298.500 L 368 302 377.500 302 L 387 302 387 298.500 L 387 295 377.500 295 L 368 295 368 298.500 M 236.642 319.833 C 233.431 331.785, 233.322 334, 235.946 334 C 237.389 334, 239.309 331.355, 243.385 323.750 C 251.290 309.002, 251.190 310, 244.749 310 L 239.285 310 236.642 319.833 M 166.930 339.584 C 165.977 340.733, 165.904 341.625, 166.666 342.834 C 167.591 344.301, 170.626 344.534, 192.108 344.782 C 205.524 344.936, 217.512 344.815, 218.750 344.513 C 221.416 343.860, 221.902 339.560, 219.418 338.607 C 218.548 338.273, 206.678 338, 193.041 338 C 171.637 338, 168.065 338.217, 166.930 339.584" stroke="none" fill="#c8c052" fill-rule="evenodd"/><path d="M -0 184.003 L -0 368.005 193.750 367.753 L 387.500 367.500 387.753 183.750 L 388.005 0 194.003 0 L 0 0 -0 184.003 M 0.489 184.500 C 0.489 285.700, 0.607 327.248, 0.750 276.829 C 0.893 226.411, 0.893 143.611, 0.750 92.829 C 0.607 42.048, 0.489 83.300, 0.489 184.500 M 129.200 26.200 C 128.540 26.860, 128 27.990, 128 28.710 C 128 30.520, 153.953 86.085, 155.809 88.250 C 158.322 91.181, 163 89.845, 163 86.197 C 163 84.338, 137.108 29, 135.185 26.750 C 133.449 24.718, 130.915 24.485, 129.200 26.200 M 225.200 26.200 C 224.540 26.860, 224 27.990, 224 28.710 C 224 30.520, 249.953 86.085, 251.809 88.250 C 254.322 91.181, 259 89.845, 259 86.197 C 259 84.338, 233.108 29, 231.185 26.750 C 229.449 24.718, 226.915 24.485, 225.200 26.200 M 102.584 36.301 C 95.633 47.168, 93.204 57.098, 95.033 67.181 C 96.120 73.179, 100.235 82.641, 104.195 88.250 C 106.366 91.326, 110.020 91.886, 112.039 89.453 C 113.114 88.158, 112.607 86.516, 108.911 79.327 C 104.585 70.912, 104.500 70.560, 104.500 61 C 104.500 51.440, 104.585 51.088, 108.911 42.673 C 112.607 35.484, 113.114 33.842, 112.039 32.547 C 109.419 29.390, 106.183 30.675, 102.584 36.301 M 198.584 36.301 C 191.633 47.168, 189.204 57.098, 191.033 67.181 C 192.120 73.179, 196.235 82.641, 200.195 88.250 C 202.366 91.326, 206.020 91.886, 208.039 89.453 C 209.114 88.158, 208.607 86.516, 204.911 79.327 C 200.585 70.912, 200.500 70.560, 200.500 61 C 200.500 51.440, 200.585 51.088, 204.911 42.673 C 208.607 35.484, 209.114 33.842, 208.039 32.547 C 205.419 29.390, 202.183 30.675, 198.584 36.301 M 107.835 146.750 C 105.884 149.065, 80 204.314, 80 206.163 C 80 209.839, 84.676 211.199, 87.170 208.250 C 89.054 206.023, 115 150.544, 115 148.744 C 115 145.152, 110.287 143.841, 107.835 146.750 M 273.200 146.200 C 272.540 146.860, 272 147.990, 272 148.710 C 272 150.520, 297.953 206.085, 299.809 208.250 C 302.322 211.181, 307 209.845, 307 206.197 C 307 204.338, 281.108 149, 279.185 146.750 C 277.449 144.718, 274.915 144.485, 273.200 146.200 M 140.333 193.615 C 138.795 195.961, 138.771 196.502, 140.098 198.865 C 141.303 201.013, 142.302 201.500, 145.500 201.500 C 148.698 201.500, 149.697 201.013, 150.902 198.865 C 152.229 196.502, 152.205 195.961, 150.667 193.615 C 149.367 191.630, 148.121 191, 145.500 191 C 142.879 191, 141.633 191.630, 140.333 193.615 M 188.333 193.615 C 186.795 195.961, 186.771 196.502, 188.098 198.865 C 189.303 201.013, 190.302 201.500, 193.500 201.500 C 196.698 201.500, 197.697 201.013, 198.902 198.865 C 200.229 196.502, 200.205 195.961, 198.667 193.615 C 197.367 191.630, 196.121 191, 193.500 191 C 190.879 191, 189.633 191.630, 188.333 193.615 M 81.200 266.200 C 80.540 266.860, 80 267.990, 80 268.710 C 80 270.520, 105.953 326.085, 107.809 328.250 C 110.322 331.181, 115 329.845, 115 326.197 C 115 324.338, 89.108 269, 87.185 266.750 C 85.449 264.718, 82.915 264.485, 81.200 266.200 M 124.250 275.662 C 123.563 275.940, 123 277.246, 123 278.564 C 123 280.305, 123.704 281.139, 125.569 281.607 C 127.390 282.064, 130.011 285.052, 134.569 291.868 C 140.752 301.114, 141 301.724, 141 307.688 L 141 313.890 136.352 314.195 C 131.035 314.544, 128.729 316.764, 130.930 319.416 C 132.870 321.753, 158.130 321.753, 160.070 319.416 C 162.271 316.764, 159.965 314.544, 154.648 314.195 L 150 313.890 150 307.438 C 150 301.194, 150.201 300.682, 156.250 291.574 C 161.056 284.337, 163.135 282.034, 165.250 281.606 C 167.370 281.177, 168 280.476, 168 278.544 C 168 275.413, 165.870 274.794, 156.479 275.199 C 149.937 275.481, 149.478 275.653, 149.155 277.944 C 148.950 279.400, 149.488 280.884, 150.486 281.613 C 152.012 282.729, 151.854 283.296, 148.712 287.961 L 145.262 293.084 142.131 288.204 C 138.903 283.175, 138.260 281, 140 281 C 141.642 281, 141.131 276.264, 139.418 275.607 C 137.553 274.891, 126.057 274.933, 124.250 275.662 M 332.349 278.250 C 332.663 280.038, 333.226 284.425, 333.600 288 C 334.431 295.943, 335.491 299, 337.416 299 C 339.533 299, 339.756 298.341, 340.979 288.448 C 341.587 283.527, 342.300 278.488, 342.562 277.250 C 343.011 275.127, 342.721 275, 337.408 275 L 331.777 275 332.349 278.250 M 368 298.500 L 368 302 377.500 302 L 387 302 387 298.500 L 387 295 377.500 295 L 368 295 368 298.500 M 236.642 319.833 C 233.431 331.785, 233.322 334, 235.946 334 C 237.389 334, 239.309 331.355, 243.385 323.750 C 251.290 309.002, 251.190 310, 244.749 310 L 239.285 310 236.642 319.833 M 166.930 339.584 C 165.977 340.733, 165.904 341.625, 166.666 342.834 C 167.591 344.301, 170.626 344.534, 192.108 344.782 C 205.524 344.936, 217.512 344.815, 218.750 344.513 C 221.416 343.860, 221.902 339.560, 219.418 338.607 C 218.548 338.273, 206.678 338, 193.041 338 C 171.637 338, 168.065 338.217, 166.930 339.584" stroke="none" fill="#242434" fill-rule="evenodd"/></svg>